<?xml version="1.0" encoding="utf-8"?>
<!-- Generator: Adobe Illustrator 16.0.0, SVG Export Plug-In . SVG Version: 6.00 Build 0)  -->
<!DOCTYPE svg PUBLIC "-//W3C//DTD SVG 1.1//EN" "http://www.w3.org/Graphics/SVG/1.1/DTD/svg11.dtd">
<svg version="1.1" id="Layer_1" xmlns="http://www.w3.org/2000/svg" xmlns:xlink="http://www.w3.org/1999/xlink" x="0px" y="0px"
	 width="1015.783px" height="181.109px" viewBox="0 0 1015.783 181.109" enable-background="new 0 0 1015.783 181.109"
	 xml:space="preserve">
<g>
	<path fill="#FFFFFF" d="M68.263,59.32v57.809c0,13.018-0.741,25.428,1.526,29.207c2.77,4.451,10.481,2.658,19.381,2.658
		c9.572,0,19.857,2.439,25.398-1.764c5.543-4.199,6.676-15.281,8.858-24.182c1.26-5.459,4.115-8.188,8.564-8.188
		c4.45,0,8.082,1.998,10.896,5.984c2.812,3.988,4.219,9.176,4.219,15.553c0,10.412-3.862,21.537-11.587,33.377
		c-2.436,3.777-4.576,6.359-6.424,7.744c-1.847,1.385-4.072,2.078-6.675,2.078l-27.96-3.4l-73.679-0.377
		c-5.793,0-9.866-0.672-12.217-2.016c-3.442-1.932-5.164-4.828-5.164-8.689c0-2.35,0.567-4.094,1.7-5.227
		c1.134-1.135,3.884-2.752,8.25-4.85c4.786-2.268,7.851-5.457,9.194-9.572c1.091-3.443,1.637-13.477,1.637-30.1
		c0-7.725-0.21-18.848-0.629-33.376c-0.421-13.935-0.672-24.434-0.757-31.486c0-6.718-0.524-11.314-1.573-13.792
		c-1.051-2.474,0.902-6.317-2.456-7.409c-5.542-1.931-13.225-1.425-14.736-2.603C1.344,24.605,0,22.212,0,19.521
		C0,13.396,5.08,8.736,15.239,5.542c8.649-2.771,5.878-3.779,20.403-3.779c16.289,0,28.464,0.84,36.524,2.52
		c10.412,2.267,15.617,6.801,15.617,13.602c0,2.771-0.692,4.831-2.078,6.171c-1.385,1.344-6.737,1.12-12.111,3.387
		c-3.19,1.428-3.232,5.892-4.072,9.334C68.683,40.223,68.263,47.732,68.263,59.32z"/>
	<path fill="#FFFFFF" d="M343.5,140.758c0,0,1.018,0.764,9.674,8.041c1.612,1.354,9.558,3.092,12.664,3.596
		c6.047,0.926,14.506,4.631,14.506,9.838c0,6.129-1.971,9.893-9.354,12.58c-7.391,2.688-19.481,4.029-36.273,4.029
		c-18.977,0-17.475-1.816-26.624-3.412c-4.201-0.758-7.539-2.287-10.013-4.598c-2.476-2.311-3.715-5.102-3.715-8.377
		c0-2.52,0.647-4.469,1.952-5.855c1.302-1.387,3.716-2.662,7.241-3.842c3.946-1.34-0.237-5.467-0.237-8.662
		c0-5.623-12.812-6.061-19.612-7.066c-7.306-1.008-17.591-1.512-30.856-1.512c-11.168,0-18.325-0.895-20.51,0.443
		c-1.343,0.84-2.036,3.924-3.043,6.105c-1.008,2.186-2.106,6.137-2.106,8.15c0,1.85,0.952,1.191,1.666,1.736
		c0.71,0.549,3.04,1.449,6.99,2.709c5.118,1.51,7.683,4.533,7.683,9.066c0,9.996-11.965,14.988-35.896,14.988
		c-13.602,0-23.598-0.924-29.975-2.77c-5.878-1.766-8.816-5.623-8.816-11.588c0-2.6,0.647-4.613,1.952-6.045
		c1.302-1.428,3.632-2.727,6.99-3.906c5.457-1.93,9.589-4.639,12.405-8.123c2.813-3.48,6.819-10.936,12.028-22.355l17.758-38.916
		c6.55-14.274,10.937-24.954,13.162-32.054c2.221-7.095,3.38-14.043,3.463-20.844c0.081-7.221,0.521-12.234,1.322-15.05
		c0.798-2.813,2.583-5.56,5.354-8.25C249.072,2.942,256.458,0,265.445,0c8.481,0,16.579,3.32,24.308,9.949
		C300.501,19.018,309.391,104.637,343.5,140.758z M248.946,105.039h24.687c4.533,0,9.536,0.545,9.536-1.471
		c0-2.77-5.884-11.125-12.182-21.955c-2.855-4.954-5.038-8.268-6.55-9.95c-1.511-1.679-2.427-4.813-4.106-4.813
		c-3.022,0-6.222,5.11-8.236,10.733c-0.336,0.756-1.557,3.736-3.652,8.941c-3.526,8.563-7.592,16.261-7.592,17.94
		C240.851,106.564,245.084,105.039,248.946,105.039z"/>
	<path fill="#FFFFFF" d="M550.79,67.255v30.731c0,18.559-1.203,31.695-3.61,39.42c-5.181,16.293-16.559,28.086-34.135,35.391
		c-10.653,4.535-22.688,6.801-36.107,6.801c-23.413,0-42.161-6.422-56.235-19.27c-6.857-6.297-11.598-13.602-14.225-21.914
		c-2.624-8.313-3.939-20.318-3.939-36.02c0-6.127,0.182-16.201,0.549-30.227c0.217-9.905,0.326-16.454,0.326-19.648
		c0-6.969-0.714-17.353-1.624-20.04c-0.917-2.687-2.641,0.351-5.707-2.001c-4.813-3.606-7.22-7.637-7.22-12.09
		c0-3.275,1.218-6.171,3.666-8.69c2.442-2.519,5.671-4.237,9.68-5.164c8.026-1.844,17.508-2.771,28.45-2.771
		c12.036,0,22.027,1.054,29.979,3.149c7.805,2.015,11.705,6.595,11.705,13.728c0,3.526-1.133,6.343-3.393,8.438
		c-0.508,0.504-2.414,0.616-6.279,2.715c-2.338,1.176-4.809-1.427-5.64,1.68c-0.841,3.106-0.661,14.166-0.661,21.299
		c0,7.304-0.291,23.094-0.875,47.355c-0.367,14.441,3.022,25.441,10.173,32.998c5.836,6.215,13.351,9.32,22.541,9.32
		c5.836,0,11.118-1.238,15.862-3.717c4.744-2.473,8.354-5.855,10.831-10.139c1.97-3.275,3.321-6.928,4.053-10.957
		c0.724-4.031,1.091-9.527,1.091-16.498V73.426c-0.367-21.239-2.025-39.309-2.718-42.961c-0.697-3.652-1.914-0.91-5.923-3.009
		c-3.793-1.931-6.386-3.694-7.771-5.29c-1.385-1.591-2.078-3.568-2.078-5.919c0-5.038,2.606-8.708,7.823-11.021
		c5.213-2.309,13.581-3.464,25.108-3.464c11.308,0,19.493,1.134,24.566,3.401c5.066,2.267,7.603,5.877,7.603,10.832
		c0,2.438-0.438,4.24-1.313,5.416c-0.874,1.179-2.452,2.336-6.779,4.352c-4.121,1.917-6.847-0.322-7.394,2.575
		C550.622,31.234,550.937,48.615,550.79,67.255z"/>
	<path fill="#FFFFFF" d="M667.424,103.904c-2.831,0-15.397,1.736-16.181,3.668c-0.784,1.934-1.175,6.422-1.175,13.475
		c0,10.664-0.547,19.127,0.644,25.088c0.37,1.684-0.479,4.301,0.266,5.225c0.737,0.926,4.715,0.592,6.797,1.93
		c4.468,2.771,6.704,6.424,6.704,10.959c0,5.539-3.114,9.465-9.328,11.775c-6.217,2.309-5.972,2.693-20.784,2.693
		c-27.551,0-41.324-5.873-41.324-17.633c0-2.016,0.406-3.631,1.229-4.848c0.818-1.215,2.68-2.916,5.583-5.102
		c3.274-2.436,6.325-0.658,7.483-3.979c1.154-3.314,1.115-13.695,1.563-21.842c0.374-5.961,0.56-27.328,0.56-64.104
		c0-11.668-1.305-19.452-1.563-23.804c-0.271-4.43,1.269-10.122-2.152-12.056c-3.278-1.763-10.023-0.518-11.139-1.987
		c-1.116-1.466-1.677-3.38-1.677-5.731c0-3.103,1.063-5.811,3.185-8.123c2.119-2.31,5.082-4.009,8.878-5.102
		c3.197-0.923,7.597-1.385,13.179-1.385c2.457,0,8.6,0.423,18.428,1.26c1.861,0.171,4.803,0.252,8.822,0.252
		c6.704,0,15.635-0.504,26.806-1.512c7.071-0.584,12.025-0.881,14.855-0.881c15.929,0,29.106,4.328,39.536,12.972
		c9.38,7.809,14.071,18.641,14.071,32.494c0,7.729-1.638,14.757-4.912,21.096c-3.278,6.343-7.784,11.104-13.515,14.295
		c-2.39,1.344-3.572,2.942-3.572,4.786c0,2.438,1.82,4.407,5.473,5.919c7.815,3.195,13.549,8.02,17.198,14.484
		c3.646,6.469,6.255,16.373,7.815,29.723c0.672,5.541-0.749,10.146,0.517,11.783c1.268,1.639,6.592,2.197,11.213,3.709
		c1.411,0.504,2.604,1.574,3.572,3.211c0.966,1.639,1.452,3.463,1.452,5.479c0,2.604-0.893,5.227-2.68,7.873
		c-1.788,2.645-4.097,4.723-6.924,6.232c-6.255,3.275-14.816,4.912-25.689,4.912c-14.519,0-24.906-4.324-31.16-12.973
		c-2.83-3.857,0.544-12.965,1.312-19.188c1.255-10.227-2.418-17.168-5.102-29.596c-1.714-7.975-7.046-10.188-12.107-13.395
		C680.157,103.789,672.336,104.156,667.424,103.904z M653.839,41.786l-1.229,29.346c0,0.251,0,0.63,0,1.133
		c0,3.022,0.111,4.101,0.896,5.108c0.78,1.007,9.744,0.336,12.129,0.336c6.554,0,11.319-1.906,14.299-5.73
		c2.975-3.82,4.465-9.93,4.465-18.326c0-16.201-5.101-24.307-15.299-24.307c-2.904,0-13.512-1.176-14.698,0.335
		C653.209,31.192,653.989,37.928,653.839,41.786z"/>
	<path fill="#FFFFFF" d="M958.171,88.344l21.025,51.834c2.266,4.705,3.875,6.107,5.387,7.574c1.513,1.469,16.898-0.803,20.005-0.297
		c6.046,0.926,11.195,9.424,11.195,14.631c0,6.129-3.694,10.537-11.083,13.223c-7.389,2.688-18.734,2.914-35.527,2.914
		c-18.977,0-14.579,1.211-23.993-2.332c-3.991-1.506-7.396-3.814-9.872-6.127c-2.477-2.309-3.716-5.1-3.716-8.375
		c0-2.518,0.651-4.471,1.952-5.855c1.302-1.387,3.716-2.664,7.241-3.842c3.947-1.342-0.597-13.438-3.257-15.207
		c-2.687-1.793-12.489-0.242-19.364-0.076c-7.616,0.188-33.26-0.891-46.526-0.891c-11.167,0-17.842,0.676-20.024,2.016
		c-1.344,0.838-2.52,2.352-3.527,4.533c-1.008,2.186-1.511,4.281-1.511,6.297c0,1.848,0.357,3.045,1.07,3.59
		c0.714,0.549,16.265,3.797,20.211,5.057c5.121,1.51,4.778,5.17,4.778,9.703c0,9.996-22.281,12.004-46.212,12.004
		c-13.602,0-14.27-1.416-20.651-3.264c-5.878-1.764-8.815-5.621-8.815-11.588c0-2.6,0.65-4.613,1.951-6.045
		c1.301-1.428,3.615-2.771,6.99-3.904c5.909-1.982,4.44-0.402,7.253-3.887c2.812-3.48,5.869-14.055,11.074-25.475
		c0,0,38.495-85.025,40.5-92.036c1.983-6.944-11.049-1.942-8.011-15.453c0.641-2.851,2.582-5.56,5.353-8.25
		C867.859,2.942,875.248,0,884.232,0c8.479,0,16.584,3.32,24.309,9.949C919.288,19.018,937.683,44.598,958.171,88.344z
		 M874.898,105.039h24.687c4.533,0,25.595-0.498,25.595-2.512c0-2.771-3.108-16.787-9.404-27.617
		c-2.855-4.955-15.209-20.711-16.719-22.391c-1.513-1.679-18.511,29.331-21.496,34.335c-4.244,7.106-8.455,13.356-8.455,15.034
		C869.105,103.99,871.036,105.039,874.898,105.039z"/>
</g>
</svg>
